{"title":"The BFG - 2016 - HD CAM - ENGLISH - x264 - AAC - Makintos13","uid":15228234,"size":732159490,"categoryP":"video","categoryS":"movies","magnet":"?xt=urn:btih:9bb674a1cfc33cceda16ae70ba92b487ffd31af2&amp;dn=The+BFG+-+2016+-+HD+CAM+-+ENGLISH+-+x264+-+AAC+-+Makintos13&amp;tr=udp%3A%2F%2Ftracker.leechers-paradise.org%3A6969&amp;tr=udp%3A%2F%2Fzer0day.ch%3A1337&amp;tr=udp%3A%2F%2Fopen.demonii.com%3A1337&amp;tr=udp%3A%2F%2Ftracker.coppersurfer.tk%3A6969&amp;tr=udp%3A%2F%2Fexodus.desync.com%3A6969","seeders":21,"leechers":1,"uploader":"makintos13","files":1,"time":1467792539,"description":"The BFG - 2016 - HD CAM - ENGLISH - x264 - AAC - Makintos13\r\n\r\nscreens:\r\n \nhttps://imgmak.com/T2R\r\n \nhttps://imgmak.com/T2b\r\n \nhttps://imgmak.com/T2x\r\n \nhttps://imgmak.com/T2z\r\n \nhttps://imgmak.com/T27\r\n \nhttps://imgmak.com/T2k\r\n \nhttps://imgmak.com/T2m\r\n \nhttps://imgmak.com/T2u\r\n \nhttps://imgmak.com/T25\r\n \nhttps://imgmak.com/T21\r\n \nhttps://imgmak.com/T2U\r\n\r\nFormat                                   : Matroska\r\nFormat version                           : Version 4 / Version 2\r\nFile size                                : 698 MiB\r\nDuration                                 : 1h 52mn\r\nOverall bit rate                         : 870 Kbps\r\n\r\nVideo\r\nID                                       : 2\r\nFormat                                   : AVC\r\nFormat/Info                              : Advanced Video Codec\r\nFormat profile                           :   \r\nFormat settings, CABAC                   : Yes\r\nFormat settings, ReFrames                : 4 frames\r\nCodec ID                                 : V_MPEG4/ISO/AVC\r\nDuration                                 : 1h 52mn\r\nBit rate                                 : 803 Kbps\r\nWidth                                    : 720 pixels\r\nHeight                                   : 352 pixels\r\nDisplay aspect ratio                     : 2.045\r\nFrame rate mode                          : Constant\r\nFrame rate                               : 29.940 fps\r\nColor space                              : YUV\r\nChroma subsampling                       : 4:2:0\r\nBit depth                                : 8 bits\r\nScan type                                : Progressive\r\nBits/(Pixel*Frame)                       : 0.106\r\nStream size                              : 645 MiB (92%)\r\nDefault                                  : Yes\r\nForced                                   : No\r\n\r\nAudio\r\nID                                       : 1\r\nFormat                                   : AAC\r\nFormat/Info                              : Advanced Audio Codec\r\nFormat profile                           : LC\r\nCodec ID                                 : A_AAC\r\nDuration                                 : 1h 52mn\r\nBit rate                                 : 64.5 Kbps\r\nChannel(s)                               : 2 channels\r\nChannel positions                        : Front: L R\r\nSampling rate                            : 48.0 KHz\r\nFrame rate                               : 46.875 fps (1024 spf)\r\nCompression mode                         : Lossy\r\nDelay relative to video                  : 46ms\r\nStream size                              : 51.7 MiB (7%)\r\nTitle                                    : Stereo\r\nDefault                                  : Yes\r\nForced                                   : No","torrent":{"xt":"urn:btih:9bb674a1cfc33cceda16ae70ba92b487ffd31af2","amp;dn":"The+BFG+-+2016+-+HD+CAM+-+ENGLISH+-+x264+-+AAC+-+Makintos13","amp;tr":["udp%3A%2F%2Ftracker.leechers-paradise.org%3A6969","udp%3A%2F%2Fzer0day.ch%3A1337","udp%3A%2F%2Fopen.demonii.com%3A1337","udp%3A%2F%2Ftracker.coppersurfer.tk%3A6969","udp%3A%2F%2Fexodus.desync.com%3A6969"],"infoHash":"9bb674a1cfc33cceda16ae70ba92b487ffd31af2","infoHashBuffer":{"type":"Buffer","data":[155,182,116,161,207,195,60,206,218,22,174,112,186,146,180,135,255,211,26,242]},"announce":[],"urlList":[]}}